<?xml version="1.0" encoding="UTF-8"?>
<svg width="312px" height="120px" viewBox="0 0 312 120" version="1.1" xmlns="http://www.w3.org/2000/svg" xmlns:xlink="http://www.w3.org/1999/xlink">
    <!-- Generator: Sketch 52.6 (67491) - http://www.bohemiancoding.com/sketch -->
    <title>logo_gdg_taipei</title>
    <desc>Created with Sketch.</desc>
    <g id="logo_gdg_taipei" stroke="none" stroke-width="1" fill="none" fill-rule="evenodd">
        <g id="gdg-taipei-2019" transform="translate(0.000000, 33.000000)">
            <g id="Group">
                <rect id="Rectangle" x="0" y="0" width="311.841048" height="54.4978166"></rect>
                <g transform="translate(0.000000, 7.720524)">
                    <g transform="translate(94.462882, 3.633188)" fill="#767676">
                        <path d="M43.8934498,26.3860262 C50.4558952,26.3860262 54.520524,22.7528384 54.520524,15.8951965 C54.520524,9.10567686 50.4558952,5.40436681 43.8934498,5.40436681 L39.0340611,5.40436681 L39.0340611,26.3633188 L43.8934498,26.3860262 Z M34.469869,0.862882096 L43.7344978,0.862882096 C53.1580786,0.862882096 59.0847162,7.130131 59.0847162,15.8951965 C59.0847162,24.7056769 53.1580786,30.9275109 43.7344978,30.9275109 L34.469869,30.9275109 L34.469869,0.862882096 Z" id="Shape" fill-rule="nonzero"></path>
                        <path d="M30.6777293,14.5327511 L16.2585153,14.5327511 L16.2585153,19.0061135 L26.431441,19.0061135 C26.0908297,21.2768559 25.2960699,23.0707424 24.1152838,24.2515284 C22.6165939,25.7502183 20.2550218,27.4078603 16.1222707,27.4078603 C9.74148472,27.4078603 4.76855895,22.2759825 4.76855895,15.8951965 C4.76855895,9.51441048 9.74148472,4.38253275 16.1222707,4.38253275 C19.5510917,4.38253275 22.0716157,5.74497817 23.910917,7.47074236 L26.9537118,4.4279476 C24.3650655,1.95283843 20.9362445,0.0681222707 16.0995633,0.0681222707 C7.37991266,0.0681222707 0.0454148472,7.17554585 0.0454148472,15.8951965 C0.0454148472,24.6148472 7.37991266,31.7222707 16.0995633,31.7222707 C20.8,31.7222707 24.3650655,30.1781659 27.1353712,27.2716157 C29.9965066,24.4104803 30.8820961,20.3912664 30.8820961,17.1441048 C30.9048035,16.1676856 30.8366812,15.3048035 30.6777293,14.5327511" id="Path"></path>
                        <path d="M92.6462882,14.5327511 L78.2270742,14.5327511 L78.2270742,19.0061135 L88.4,19.0061135 C88.0593886,21.2768559 87.2646288,23.0707424 86.0838428,24.2515284 C84.5851528,25.7502183 82.2235808,27.4078603 78.0908297,27.4078603 C71.7100437,27.4078603 66.7371179,22.2759825 66.7371179,15.8951965 C66.7371179,9.51441048 71.7100437,4.38253275 78.0908297,4.38253275 C81.5196507,4.38253275 84.0401747,5.74497817 85.879476,7.47074236 L88.9222707,4.4279476 C86.3336245,1.95283843 82.9048035,0.0681222707 78.0681223,0.0681222707 C69.3484716,0.0681222707 62.0139738,7.17554585 62.0139738,15.8951965 C62.0139738,24.6148472 69.3484716,31.7222707 78.0681223,31.7222707 C82.768559,31.7222707 86.3336245,30.1781659 89.1039301,27.2716157 C91.9650655,24.4104803 92.850655,20.3912664 92.850655,17.1441048 C92.8960699,16.1676856 92.8052402,15.3048035 92.6462882,14.5327511" id="Path"></path>
                    </g>
                    <g transform="translate(202.777293, 3.633188)" fill="#767676">
                        <polygon id="Path" points="12.8069869 31.5633188 8.78777293 31.5633188 8.78777293 4.20087336 0.0681222707 4.20087336 0.0681222707 0.363318777 21.5039301 0.363318777 21.5039301 4.20087336 12.7842795 4.20087336 12.7842795 31.5633188"></polygon>
                        <g transform="translate(20.436681, 0.000000)" fill-rule="nonzero" id="Shape">
                            <path d="M8.06113537,32.2672489 C5.79039301,32.2672489 3.90567686,31.6087336 2.38427948,30.3144105 C0.862882096,28.9973799 0.0908296943,27.2716157 0.0908296943,25.1371179 C0.0908296943,22.8209607 0.999126638,20.9816594 2.7930131,19.6646288 C4.58689956,18.3475983 6.81222707,17.689083 9.46899563,17.689083 C11.8305677,17.689083 13.7606987,18.120524 15.2593886,19.0061135 L15.2593886,18.3930131 C15.2593886,16.8262009 14.7144105,15.5772926 13.6471616,14.6235808 C12.5799127,13.669869 11.2401747,13.2157205 9.67336245,13.2157205 C8.51528384,13.2157205 7.44803493,13.4882096 6.51703057,14.0331878 C5.56331878,14.5781659 4.92751092,15.3502183 4.58689956,16.3039301 L0.931004367,14.7371179 C1.43056769,13.4655022 2.4069869,12.2847162 3.86026201,11.1947598 C5.31353712,10.1048035 7.2209607,9.55982533 9.60524017,9.55982533 C12.330131,9.55982533 14.6008734,10.3545852 16.3947598,11.9668122 C18.1886463,13.5563319 19.0969432,15.8270742 19.0969432,18.710917 L19.0969432,31.5633188 L15.2593886,31.5633188 L15.2593886,28.6113537 L15.0777293,28.6113537 C13.4882096,31.041048 11.149345,32.2672489 8.06113537,32.2672489 Z M8.71965066,28.6113537 C10.3772926,28.6113537 11.8759825,27.9982533 13.2384279,26.749345 C14.5781659,25.5231441 15.2593886,24.0471616 15.2593886,22.3668122 C14.1240175,21.4358079 12.4209607,20.9816594 10.1502183,20.9816594 C8.19737991,20.9816594 6.7441048,21.4131004 5.74497817,22.2532751 C4.74585153,23.0934498 4.26899563,24.0925764 4.26899563,25.2052402 C4.26899563,26.2497817 4.7231441,27.0899563 5.60873362,27.6803493 C6.51703057,28.2934498 7.56157205,28.6113537 8.71965066,28.6113537 Z"></path>
                            <path d="M27.9755459,4.85938865 C27.4305677,5.40436681 26.749345,5.6768559 25.9772926,5.6768559 C25.1825328,5.6768559 24.5240175,5.40436681 23.9790393,4.85938865 C23.4340611,4.31441048 23.1615721,3.63318777 23.1615721,2.86113537 C23.1615721,2.08908297 23.4340611,1.40786026 23.9790393,0.862882096 C24.5240175,0.31790393 25.2052402,0.0454148472 25.9772926,0.0454148472 C26.7720524,0.0454148472 27.4305677,0.31790393 27.9755459,0.862882096 C28.520524,1.40786026 28.7930131,2.08908297 28.7930131,2.86113537 C28.7930131,3.63318777 28.520524,4.31441048 27.9755459,4.85938865 Z M27.9755459,31.5633188 L23.9563319,31.5633188 L23.9563319,10.2183406 L27.9755459,10.2183406 L27.9755459,31.5633188 Z"></path>
                            <path d="M44.3248908,32.2672489 C42.6899563,32.2672489 41.2366812,31.9266376 39.9423581,31.2227074 C38.6480349,30.5187773 37.6943231,29.6558952 37.0358079,28.6113537 L36.8541485,28.6113537 L37.0358079,31.5633188 L37.0358079,40.9868996 L33.0165939,40.9868996 L33.0165939,10.2183406 L36.8541485,10.2183406 L36.8541485,13.1703057 L37.0358079,13.1703057 C37.6716157,12.1257642 38.6480349,11.2628821 39.9423581,10.558952 C41.2366812,9.85502183 42.6899563,9.51441048 44.3248908,9.51441048 C47.0951965,9.51441048 49.4567686,10.6043668 51.4777293,12.7842795 C53.4759825,14.9641921 54.4751092,17.6663755 54.4751092,20.8908297 C54.4751092,24.1152838 53.4759825,26.8174672 51.4777293,28.9973799 C49.4567686,31.1772926 47.0724891,32.2672489 44.3248908,32.2672489 Z M43.6663755,28.6113537 C45.5283843,28.6113537 47.1179039,27.9074236 48.4576419,26.4995633 C49.7973799,25.0917031 50.4558952,23.2296943 50.4558952,20.8908297 C50.4558952,18.5746725 49.7973799,16.6899563 48.4576419,15.2820961 C47.1179039,13.8742358 45.5283843,13.1703057 43.6663755,13.1703057 C41.7816594,13.1703057 40.1694323,13.8742358 38.8524017,15.2593886 C37.5353712,16.6445415 36.8768559,18.5292576 36.8768559,20.8908297 C36.8768559,23.2524017 37.5353712,25.1144105 38.8524017,26.5222707 C40.1694323,27.9074236 41.7816594,28.6113537 43.6663755,28.6113537 Z"></path>
                            <path d="M67.8043668,32.2672489 C64.5799127,32.2672489 61.968559,31.2 59.9475983,29.0427948 C57.9266376,26.8855895 56.9275109,24.1834061 56.9275109,20.8908297 C56.9275109,17.7799127 57.9039301,15.1004367 59.879476,12.8751092 C61.8323144,10.6270742 64.3528384,9.51441048 67.3956332,9.51441048 C70.5519651,9.51441048 73.0951965,10.5362445 75.0026201,12.6026201 C76.9100437,14.6689956 77.8637555,17.4165939 77.8637555,20.8908297 L77.8183406,21.6401747 L60.9467249,21.6401747 C61.060262,23.7973799 61.7868996,25.5004367 63.1039301,26.749345 C64.4209607,27.9982533 65.9650655,28.6340611 67.7362445,28.6340611 C70.6200873,28.6340611 72.5502183,27.4078603 73.5720524,24.9781659 L77.1371179,26.4541485 C76.4331878,28.1117904 75.2978166,29.4969432 73.6855895,30.609607 C72.0960699,31.6995633 70.120524,32.2672489 67.8043668,32.2672489 Z M73.549345,18.3248908 C73.4585153,17.09869 72.9135371,15.9406114 71.8689956,14.8279476 C70.8471616,13.7152838 69.3030568,13.1703057 67.2820961,13.1703057 C65.8061135,13.1703057 64.5117904,13.6244541 63.4218341,14.5554585 C62.3318777,15.4864629 61.5825328,16.7353712 61.1737991,18.3021834 L73.549345,18.3021834 L73.549345,18.3248908 Z"></path>
                            <path d="M85.8340611,4.85938865 C85.289083,5.40436681 84.6078603,5.6768559 83.8358079,5.6768559 C83.041048,5.6768559 82.3825328,5.40436681 81.8375546,4.85938865 C81.2925764,4.31441048 81.0200873,3.63318777 81.0200873,2.86113537 C81.0200873,2.08908297 81.2925764,1.40786026 81.8375546,0.862882096 C82.3825328,0.31790393 83.0637555,0.0454148472 83.8358079,0.0454148472 C84.6305677,0.0454148472 85.289083,0.31790393 85.8340611,0.862882096 C86.3790393,1.40786026 86.6515284,2.08908297 86.6515284,2.86113537 C86.6515284,3.63318777 86.4017467,4.31441048 85.8340611,4.85938865 Z M85.8340611,31.5633188 L81.8148472,31.5633188 L81.8148472,10.2183406 L85.8340611,10.2183406 L85.8340611,31.5633188 Z"></path>
                        </g>
                    </g>
                    <g id="Path">
                        <path d="M19.0515284,19.5965066 L32.0401747,12.1030568 C35.1056769,10.3318777 36.1502183,6.42620087 34.3790393,3.38340611 C32.6078603,0.31790393 28.7021834,-0.726637555 25.6593886,1.04454148 L3.20174672,13.9877729 L19.0515284,19.5965066 Z" fill="#EA4335"></path>
                        <path d="M28.8384279,38.8751092 C31.041048,38.8751092 33.1982533,37.739738 34.3790393,35.6733624 C36.1502183,32.6078603 35.1056769,28.7021834 32.0401747,26.9537118 L9.58253275,13.9877729 C6.51703057,12.2165939 2.61135371,13.2611354 0.862882096,16.3266376 C-0.908296943,19.3921397 0.136244541,23.2978166 3.20174672,25.0462882 L25.6366812,38.0122271 C26.6358079,38.6026201 27.7484716,38.8751092 28.8384279,38.8751092" fill="#4285F4"></path>
                        <path d="M51.1598253,38.8751092 C52.2497817,38.8751092 53.339738,38.6026201 54.3388646,38.0122271 L76.7737991,25.0462882 L61.1283843,19.3240175 L47.9353712,26.9310044 C44.869869,28.7021834 43.8253275,32.6078603 45.5965066,35.650655 C46.8,37.739738 48.9344978,38.8751092 51.1598253,38.8751092" fill="#FBBC04"></path>
                        <path d="M73.5720524,25.9091703 C75.7746725,25.9091703 77.9318777,24.7737991 79.1126638,22.7074236 C80.8838428,19.6419214 79.8393013,15.7362445 76.7737991,13.9877729 L54.3388646,1.02183406 C51.2733624,-0.749344978 47.3676856,0.295196507 45.619214,3.36069869 C43.8480349,6.42620087 44.8925764,10.3318777 47.9580786,12.0803493 L70.3930131,25.0462882 C71.3921397,25.6366812 72.5048035,25.9091703 73.5720524,25.9091703" fill="#0F9D58"></path>
                    </g>
                </g>
            </g>
        </g>
    </g>
</svg>